<?xml version="1.0" encoding="UTF-8"?>
<svg xmlns="http://www.w3.org/2000/svg" xmlns:xlink="http://www.w3.org/1999/xlink" width="18px" height="16px" viewBox="0 0 18 16" version="1.1">
<g id="surface1">
<path style=" stroke:none;fill-rule:nonzero;fill:rgb(100%,100%,100%);fill-opacity:1;" d="M 11.207031 0.707031 C 10.503906 0.707031 9.777344 0.867188 9.09375 1.222656 L 2.125 4.808594 C -0.71875 6.273438 -0.707031 9.933594 2.148438 11.359375 L 9.152344 14.855469 C 9.816406 15.1875 10.519531 15.339844 11.207031 15.339844 C 13.429688 15.339844 15.46875 13.746094 15.457031 11.535156 L 15.421875 4.449219 C 15.414062 2.261719 13.402344 0.707031 11.207031 0.707031 M 11.207031 1.25 C 12.128906 1.25 13.039062 1.578125 13.710938 2.152344 C 14.417969 2.75 14.808594 3.566406 14.8125 4.449219 L 14.847656 11.539062 C 14.851562 12.410156 14.476562 13.222656 13.796875 13.832031 C 13.109375 14.445312 12.164062 14.796875 11.207031 14.796875 C 10.59375 14.796875 10.003906 14.660156 9.449219 14.382812 L 2.445312 10.882812 C 1.304688 10.316406 0.621094 9.277344 0.609375 8.109375 C 0.601562 6.929688 1.28125 5.871094 2.429688 5.28125 L 9.402344 1.691406 C 9.96875 1.398438 10.574219 1.25 11.207031 1.25 "/>
<path style=" stroke:none;fill-rule:nonzero;fill:rgb(63.137255%,91.372549%,20.392157%);fill-opacity:1;" d="M 6.683594 0.53125 C 4.441406 0.53125 2.378906 2.125 2.378906 4.359375 L 2.378906 11.628906 C 2.378906 13.859375 4.4375 15.457031 6.683594 15.457031 C 7.390625 15.457031 8.121094 15.296875 8.808594 14.949219 L 15.832031 11.386719 C 18.695312 9.933594 18.730469 6.277344 15.898438 4.78125 L 8.871094 1.074219 C 8.167969 0.699219 7.417969 0.53125 6.683594 0.53125 M 6.683594 1.074219 C 7.34375 1.074219 7.976562 1.230469 8.558594 1.539062 L 15.585938 5.25 C 16.726562 5.851562 17.402344 6.917969 17.390625 8.097656 C 17.378906 9.277344 16.683594 10.328125 15.527344 10.914062 L 8.503906 14.476562 C 7.933594 14.765625 7.320312 14.914062 6.683594 14.914062 C 5.738281 14.914062 4.800781 14.574219 4.113281 13.988281 C 3.386719 13.371094 2.988281 12.53125 2.988281 11.628906 L 2.988281 4.359375 C 2.988281 2.328125 4.90625 1.074219 6.683594 1.074219 "/>
<path style=" stroke:none;fill-rule:nonzero;fill:rgb(63.137255%,91.372549%,20.392157%);fill-opacity:1;" d="M 15.132812 8.644531 C 15.113281 8.644531 15.089844 8.640625 15.070312 8.636719 L 15.402344 8.125 L 15.070312 7.613281 C 15.089844 7.613281 15.113281 7.609375 15.132812 7.609375 C 15.453125 7.609375 15.714844 7.839844 15.714844 8.125 C 15.714844 8.410156 15.453125 8.644531 15.132812 8.644531 Z M 12.128906 11.839844 C 11.589844 11.839844 11.132812 12.160156 10.988281 12.59375 L 6.871094 12.59375 C 6.722656 12.160156 6.269531 11.839844 5.726562 11.839844 C 5.652344 11.839844 5.578125 11.847656 5.507812 11.859375 L 3.554688 8.847656 C 3.753906 8.660156 3.875 8.40625 3.875 8.125 C 3.875 7.847656 3.753906 7.59375 3.554688 7.402344 L 5.476562 4.441406 C 5.558594 4.457031 5.640625 4.46875 5.726562 4.46875 C 6.289062 4.46875 6.761719 4.121094 6.886719 3.65625 L 11.023438 3.65625 C 11.195312 4.046875 11.625 4.324219 12.128906 4.324219 C 12.160156 4.324219 12.191406 4.320312 12.226562 4.320312 L 14.242188 7.421875 C 14.054688 7.609375 13.941406 7.855469 13.941406 8.125 C 13.941406 8.394531 14.054688 8.640625 14.242188 8.828125 L 12.277344 11.847656 C 12.230469 11.84375 12.179688 11.839844 12.128906 11.839844 Z M 11.660156 12.59375 C 11.722656 12.519531 11.808594 12.457031 11.90625 12.421875 L 11.792969 12.59375 Z M 12.710938 12.898438 C 12.710938 13.183594 12.449219 13.417969 12.128906 13.417969 C 11.90625 13.417969 11.714844 13.304688 11.617188 13.136719 L 12.148438 13.136719 L 12.539062 12.535156 C 12.644531 12.628906 12.710938 12.757812 12.710938 12.898438 Z M 5.859375 12.398438 C 5.996094 12.425781 6.113281 12.496094 6.195312 12.59375 L 5.988281 12.59375 Z M 5.726562 13.417969 C 5.40625 13.417969 5.148438 13.183594 5.148438 12.898438 C 5.148438 12.777344 5.195312 12.667969 5.273438 12.582031 L 5.636719 13.136719 L 6.242188 13.136719 C 6.144531 13.304688 5.953125 13.417969 5.726562 13.417969 Z M 2.683594 8.644531 C 2.363281 8.644531 2.101562 8.410156 2.101562 8.125 C 2.101562 7.839844 2.363281 7.609375 2.683594 7.609375 C 2.691406 7.609375 2.703125 7.609375 2.714844 7.613281 L 2.378906 8.125 L 2.714844 8.640625 C 2.703125 8.640625 2.691406 8.644531 2.683594 8.644531 Z M 3.265625 8.125 C 3.265625 8.199219 3.246094 8.265625 3.21875 8.328125 L 3.085938 8.125 L 3.21875 7.921875 C 3.246094 7.984375 3.265625 8.054688 3.265625 8.125 Z M 6.234375 3.65625 C 6.148438 3.792969 6 3.890625 5.820312 3.917969 L 5.988281 3.65625 Z M 5.148438 3.40625 C 5.148438 3.121094 5.40625 2.890625 5.726562 2.890625 C 5.925781 2.890625 6.101562 2.980469 6.207031 3.113281 L 5.636719 3.113281 L 5.253906 3.703125 C 5.1875 3.617188 5.148438 3.515625 5.148438 3.40625 Z M 11.824219 3.703125 C 11.800781 3.6875 11.777344 3.671875 11.753906 3.65625 L 11.792969 3.65625 Z M 12.128906 2.746094 C 12.449219 2.746094 12.710938 2.976562 12.710938 3.261719 C 12.710938 3.421875 12.628906 3.5625 12.5 3.65625 L 12.148438 3.113281 L 11.574219 3.113281 C 11.648438 2.902344 11.867188 2.746094 12.128906 2.746094 Z M 14.550781 8.125 C 14.550781 8.066406 14.566406 8.007812 14.585938 7.953125 L 14.699219 8.125 L 14.585938 8.296875 C 14.566406 8.242188 14.550781 8.1875 14.550781 8.125 Z M 15.132812 7.066406 C 15 7.066406 14.871094 7.085938 14.75 7.121094 L 12.808594 4.132812 C 13.117188 3.941406 13.320312 3.625 13.320312 3.261719 C 13.320312 2.679688 12.789062 2.203125 12.128906 2.203125 C 11.527344 2.203125 11.03125 2.597656 10.949219 3.113281 L 6.875 3.113281 C 6.730469 2.671875 6.273438 2.347656 5.726562 2.347656 C 5.070312 2.347656 4.535156 2.820312 4.535156 3.40625 C 4.535156 3.71875 4.6875 4 4.933594 4.195312 L 3.035156 7.113281 C 2.925781 7.082031 2.804688 7.066406 2.683594 7.066406 C 2.023438 7.066406 1.492188 7.539062 1.492188 8.125 C 1.492188 8.710938 2.023438 9.1875 2.683594 9.1875 C 2.804688 9.1875 2.925781 9.167969 3.035156 9.136719 L 4.957031 12.09375 C 4.699219 12.289062 4.535156 12.578125 4.535156 12.898438 C 4.535156 13.484375 5.070312 13.960938 5.726562 13.960938 C 6.292969 13.960938 6.765625 13.609375 6.890625 13.136719 L 10.96875 13.136719 C 11.089844 13.609375 11.5625 13.960938 12.128906 13.960938 C 12.789062 13.960938 13.320312 13.484375 13.320312 12.898438 C 13.320312 12.554688 13.136719 12.25 12.851562 12.058594 L 14.75 9.128906 C 14.871094 9.164062 15 9.1875 15.132812 9.1875 C 15.792969 9.1875 16.324219 8.710938 16.324219 8.125 C 16.324219 7.539062 15.792969 7.066406 15.132812 7.066406 Z M 15.132812 7.066406 "/>
<path style=" stroke:none;fill-rule:nonzero;fill:rgb(100%,100%,100%);fill-opacity:1;" d="M 12.804688 3.261719 C 12.804688 3.597656 12.503906 3.867188 12.128906 3.867188 C 11.753906 3.867188 11.453125 3.597656 11.453125 3.261719 C 11.453125 2.929688 11.753906 2.660156 12.128906 2.660156 C 12.503906 2.660156 12.804688 2.929688 12.804688 3.261719 "/>
<path style=" stroke:none;fill-rule:nonzero;fill:rgb(100%,100%,100%);fill-opacity:1;" d="M 6.40625 3.40625 C 6.40625 3.738281 6.101562 4.007812 5.726562 4.007812 C 5.355469 4.007812 5.050781 3.738281 5.050781 3.40625 C 5.050781 3.074219 5.355469 2.804688 5.726562 2.804688 C 6.101562 2.804688 6.40625 3.074219 6.40625 3.40625 "/>
<path style=" stroke:none;fill-rule:nonzero;fill:rgb(100%,100%,100%);fill-opacity:1;" d="M 3.359375 8.125 C 3.359375 8.457031 3.058594 8.726562 2.683594 8.726562 C 2.308594 8.726562 2.003906 8.457031 2.003906 8.125 C 2.003906 7.792969 2.308594 7.523438 2.683594 7.523438 C 3.058594 7.523438 3.359375 7.792969 3.359375 8.125 "/>
<path style=" stroke:none;fill-rule:nonzero;fill:rgb(100%,100%,100%);fill-opacity:1;" d="M 6.40625 12.898438 C 6.40625 13.234375 6.101562 13.503906 5.726562 13.503906 C 5.355469 13.503906 5.050781 13.234375 5.050781 12.898438 C 5.050781 12.566406 5.355469 12.296875 5.726562 12.296875 C 6.101562 12.296875 6.40625 12.566406 6.40625 12.898438 "/>
<path style=" stroke:none;fill-rule:nonzero;fill:rgb(100%,100%,100%);fill-opacity:1;" d="M 12.804688 12.898438 C 12.804688 13.234375 12.503906 13.503906 12.128906 13.503906 C 11.753906 13.503906 11.453125 13.234375 11.453125 12.898438 C 11.453125 12.566406 11.753906 12.296875 12.128906 12.296875 C 12.503906 12.296875 12.804688 12.566406 12.804688 12.898438 "/>
<path style=" stroke:none;fill-rule:nonzero;fill:rgb(100%,100%,100%);fill-opacity:1;" d="M 15.808594 8.125 C 15.808594 8.457031 15.507812 8.726562 15.132812 8.726562 C 14.757812 8.726562 14.457031 8.457031 14.457031 8.125 C 14.457031 7.792969 14.757812 7.523438 15.132812 7.523438 C 15.507812 7.523438 15.808594 7.792969 15.808594 8.125 "/>
</g>
</svg>
